#N canvas 22 137 1440 900 10;
#X msg 265 9 MiniDJ Nicole Molineros S. 2024-2;
#X obj 80 413 send toGUI;
#X obj 289 61 receive fromGUI;
#X obj 441 349 tabwrite pitch;
#X obj 439 238 list split 1;
#X obj 527 237 t l;
#X obj 439 210 t l l;
#X obj 481 263 list length;
#X obj 465 313 - 1;
#X obj 465 288 int;
#X obj 439 264 t f b;
#X obj 282 285 metro 125;
#X obj 278 257 tgl 15 0 empty empty empty 17 7 0 10 #fcfcfc #000000 #000000 0 1;
#X obj 283 317 int;
#X obj 314 319 + 1;
#X obj 281 422 tabread pitch;
#X obj 281 477 int;
#X floatatom 280 502 5 0 0 0 - - - 0;
#X obj 281 527 mtof;
#X obj 290 676 dac~;
#X obj 284 552 phasor~;
#X obj 562 240 list split 1;
#X obj 650 239 t l;
#X obj 562 212 t l l;
#X obj 604 265 list length;
#X obj 588 315 - 1;
#X obj 588 290 int;
#X obj 562 266 t f b;
#X obj 570 350 tabwrite filt;
#X obj 377 425 tabread filt;
#X msg 80 383 list /indexSlider \$1;
#X floatatom 313 256 5 0 0 0 - - - 0;
#X obj 335 647 line~;
#X obj 337 601 t b b;
#X msg 444 603 1;
#X obj 286 644 *~;
#X obj 281 454 expr $f1*24+48;
#X obj 314 346 % 16;
#X obj 441 371 table pitch 16;
#X obj 570 372 table filt 16;
#X obj 286 583 lop~;
#X obj 379 454 expr $f1*$f1*$f1*6000+220;
#X obj 277 227 loadbang;
#X obj 336 621 pack 0 125;
#X obj 60 275 loadbang;
#X msg 61 298 list /tempoKnob 0.5;
#X obj 288 89 list trim;
#X obj 288 114 route /pitchMulti /filtMulti /tempoKnob;
#X text 477 599 notas;
#X text 55 247 Controlador Knob;
#X text 221 419 pitch;
#X text 465 423 filtro;
#X connect 2 0 46 0;
#X connect 4 0 10 0;
#X connect 4 1 5 0;
#X connect 5 0 4 0;
#X connect 6 0 4 0;
#X connect 6 1 7 0;
#X connect 7 0 9 1;
#X connect 8 0 9 1;
#X connect 8 0 3 1;
#X connect 9 0 8 0;
#X connect 10 0 3 0;
#X connect 10 1 9 0;
#X connect 11 0 13 0;
#X connect 12 0 11 0;
#X connect 13 0 14 0;
#X connect 13 0 15 0;
#X connect 13 0 29 0;
#X connect 13 0 30 0;
#X connect 13 0 33 0;
#X connect 14 0 37 0;
#X connect 15 0 36 0;
#X connect 16 0 17 0;
#X connect 17 0 18 0;
#X connect 18 0 20 0;
#X connect 20 0 40 0;
#X connect 21 0 27 0;
#X connect 21 1 22 0;
#X connect 22 0 21 0;
#X connect 23 0 21 0;
#X connect 23 1 24 0;
#X connect 24 0 26 1;
#X connect 25 0 26 1;
#X connect 25 0 28 1;
#X connect 26 0 25 0;
#X connect 27 0 28 0;
#X connect 27 1 26 0;
#X connect 29 0 41 0;
#X connect 30 0 1 0;
#X connect 31 0 11 1;
#X connect 31 0 43 1;
#X connect 32 0 35 1;
#X connect 33 0 43 0;
#X connect 33 1 34 0;
#X connect 34 0 32 0;
#X connect 35 0 19 1;
#X connect 35 0 19 0;
#X connect 36 0 16 0;
#X connect 37 0 13 1;
#X connect 40 0 35 0;
#X connect 41 0 40 1;
#X connect 42 0 12 0;
#X connect 43 0 32 0;
#X connect 44 0 45 0;
#X connect 45 0 1 0;
#X connect 46 0 47 0;
#X connect 47 0 6 0;
#X connect 47 1 23 0;
